#N canvas 600 162 917 829 12;
#X msg 52 286 \; host read-uidesc /home/msp/test.uidesc;
#X obj 358 101 r param;
#X listbox 358 126 20 0 0 0 - - - 0;
#X floatatom 363 233 5 0 100 0 - - - 0;
#X obj 363 257 / 100;
#X msg 363 282 \; host param 0 \$1;
#X obj 164 194 noteout;
#X obj 55 137 notein;
#X floatatom 55 225 5 0 0 0 - - - 0;
#X floatatom 71 198 5 0 0 0 - - - 0;
#X floatatom 92 175 5 0 0 0 - - - 0;
#X text 43 64 MIDI notes in and out;
#X text 47 87 (sorry \, no other MIDI messages yet)., f 22;
#X floatatom 162 138 5 0 0 0 - - - 0;
#X obj 162 162 makenote 64 250;
#X text 368 73 VST parameter input;
#X msg 44 421 \; host param 1 0 10 midi-foo;
#X floatatom 490 240 5 0 100 0 - - - 0;
#X obj 490 264 / 100;
#X msg 490 289 \; host param 1 \$1;
#X text 47 372 try to rename a parameter - this doesn't work yet, f 27;
#X obj 85 504 adc~;
#X obj 82 542 env~ 8192;
#X floatatom 82 567 5 0 0 0 - - - 0;
#X obj 165 545 env~ 8192;
#X floatatom 165 570 5 0 0 0 - - - 0;
#X obj 241 546 env~ 8192;
#X floatatom 241 571 5 0 0 0 - - - 0;
#X obj 324 549 env~ 8192;
#X floatatom 324 574 5 0 0 0 - - - 0;
#X obj 244 508 adc~ 3 4;
#X text 83 477 audio input;
#X text 370 207 parameter changes back to host;
#X text 368 322 first parameter;
#X text 506 327 second one;
#X obj 525 539 tgl 20 0 empty empty empty 0 -10 0 12 #fcfcfc #000000 #000000 0 1;
#X obj 479 491 osc~ 440;
#X obj 479 516 *~ 0.03;
#X obj 479 541 *~;
#X obj 119 660 dac~ 1 2;
#X text 252 489 second audio input "bus";
#X text 468 467 audio output;
#X msg 634 510 \; host verifyquit;
#X msg 338 403 \; host in-bus-list 6 2 4;
#X msg 517 399 \; host out-bus-list 8;
#X text 343 373 set input or output channel count for main and "buses";
#X text 643 478 hide the GUI;
#X text 146 14 test/example patch for loading inside pureVST;
#X connect 1 0 2 0;
#X connect 3 0 4 0;
#X connect 4 0 5 0;
#X connect 7 0 8 0;
#X connect 7 1 9 0;
#X connect 7 2 10 0;
#X connect 13 0 14 0;
#X connect 14 0 6 0;
#X connect 14 1 6 1;
#X connect 17 0 18 0;
#X connect 18 0 19 0;
#X connect 21 0 22 0;
#X connect 21 0 39 0;
#X connect 21 1 24 0;
#X connect 21 1 39 1;
#X connect 22 0 23 0;
#X connect 24 0 25 0;
#X connect 26 0 27 0;
#X connect 28 0 29 0;
#X connect 30 0 26 0;
#X connect 30 1 28 0;
#X connect 35 0 38 1;
#X connect 36 0 37 0;
#X connect 37 0 38 0;
#X connect 38 0 39 0;
#X connect 38 0 39 1;
